<mxfile host="app.diagrams.net" modified="2023-01-13T03:27:59.352Z" agent="5.0 (Macintosh; Intel Mac OS X 10_15_7) AppleWebKit/537.36 (KHTML, like Gecko) Chrome/108.0.0.0 Safari/537.36" etag="ZY8AqUTrf7WYmRCg-xS2" version="20.5.1" type="github">
  <diagram id="SrC4VH6lOz7VmCzOTrHH" name="第 1 页">
    <mxGraphModel dx="946" dy="2176" grid="0" gridSize="10" guides="1" tooltips="1" connect="1" arrows="1" fold="1" page="1" pageScale="1" pageWidth="1169" pageHeight="1654" math="0" shadow="0">
      <root>
        <mxCell id="0" />
        <mxCell id="1" parent="0" />
        <mxCell id="bhglwZXVVEl7jcrbFOMm-1" value="&lt;font style=&quot;font-size: 30px;&quot;&gt;1230/1500&lt;/font&gt;" style="rounded=0;whiteSpace=wrap;html=1;strokeWidth=2;fillColor=#b0e3e6;strokeColor=#000000;" vertex="1" parent="1">
          <mxGeometry x="134" y="308" width="800" height="110" as="geometry" />
        </mxCell>
        <mxCell id="bhglwZXVVEl7jcrbFOMm-2" value="270" style="rounded=0;whiteSpace=wrap;html=1;strokeColor=#23445d;strokeWidth=2;fontSize=30;fillColor=#bac8d3;" vertex="1" parent="1">
          <mxGeometry x="134" y="308" width="200" height="110" as="geometry" />
        </mxCell>
        <mxCell id="bhglwZXVVEl7jcrbFOMm-3" value="能量消耗" style="text;html=1;align=center;verticalAlign=middle;resizable=0;points=[];autosize=1;strokeColor=none;fillColor=none;fontSize=30;strokeWidth=2;" vertex="1" parent="1">
          <mxGeometry x="467" y="-260" width="140" height="50" as="geometry" />
        </mxCell>
        <mxCell id="bhglwZXVVEl7jcrbFOMm-4" value="" style="rounded=0;whiteSpace=wrap;html=1;strokeWidth=2;fillColor=#b0e3e6;strokeColor=#000000;" vertex="1" parent="1">
          <mxGeometry x="131" y="529" width="800" height="110" as="geometry" />
        </mxCell>
        <mxCell id="bhglwZXVVEl7jcrbFOMm-5" value="600" style="rounded=0;whiteSpace=wrap;html=1;strokeColor=#23445d;strokeWidth=2;fontSize=30;fillColor=#bac8d3;" vertex="1" parent="1">
          <mxGeometry x="131" y="529" width="360" height="110" as="geometry" />
        </mxCell>
        <mxCell id="bhglwZXVVEl7jcrbFOMm-6" value="&lt;span style=&quot;&quot;&gt;900/1500&lt;/span&gt;" style="text;html=1;align=center;verticalAlign=middle;resizable=0;points=[];autosize=1;strokeColor=none;fillColor=none;fontSize=30;strokeWidth=2;" vertex="1" parent="1">
          <mxGeometry x="454" y="560" width="143" height="48" as="geometry" />
        </mxCell>
        <mxCell id="bhglwZXVVEl7jcrbFOMm-7" value="&lt;font style=&quot;font-size: 30px;&quot;&gt;1500/1500&lt;/font&gt;" style="rounded=0;whiteSpace=wrap;html=1;strokeWidth=2;fillColor=#b0e3e6;strokeColor=#000000;" vertex="1" parent="1">
          <mxGeometry x="127" y="90" width="800" height="110" as="geometry" />
        </mxCell>
        <mxCell id="bhglwZXVVEl7jcrbFOMm-9" value="" style="rounded=0;whiteSpace=wrap;html=1;strokeColor=#b46504;strokeWidth=2;fontSize=30;fillColor=#fad7ac;" vertex="1" parent="1">
          <mxGeometry x="187" y="1773" width="801" height="433" as="geometry" />
        </mxCell>
        <mxCell id="bhglwZXVVEl7jcrbFOMm-10" value="43,200,000,000" style="text;html=1;strokeColor=none;fillColor=none;align=center;verticalAlign=middle;whiteSpace=wrap;rounded=0;strokeWidth=2;fontSize=30;" vertex="1" parent="1">
          <mxGeometry x="545" y="1800" width="60" height="30" as="geometry" />
        </mxCell>
        <mxCell id="bhglwZXVVEl7jcrbFOMm-12" value="" style="rounded=0;whiteSpace=wrap;html=1;strokeColor=#0e8088;strokeWidth=2;fontSize=30;fillColor=#b0e3e6;" vertex="1" parent="1">
          <mxGeometry x="221" y="1832" width="746" height="349" as="geometry" />
        </mxCell>
        <mxCell id="bhglwZXVVEl7jcrbFOMm-13" value="质押 1 trx" style="text;html=1;strokeColor=none;fillColor=none;align=center;verticalAlign=middle;whiteSpace=wrap;rounded=0;strokeWidth=2;fontSize=30;" vertex="1" parent="1">
          <mxGeometry x="468" y="1907" width="210" height="30" as="geometry" />
        </mxCell>
        <mxCell id="bhglwZXVVEl7jcrbFOMm-14" value="43,200,000,000" style="text;html=1;strokeColor=none;fillColor=none;align=center;verticalAlign=middle;whiteSpace=wrap;rounded=0;strokeWidth=2;fontSize=30;" vertex="1" parent="1">
          <mxGeometry x="532" y="1967" width="60" height="30" as="geometry" />
        </mxCell>
        <mxCell id="bhglwZXVVEl7jcrbFOMm-15" value="" style="rounded=0;whiteSpace=wrap;html=1;strokeColor=#b46504;strokeWidth=2;fontSize=30;fillColor=#fad7ac;" vertex="1" parent="1">
          <mxGeometry x="184" y="2304" width="801" height="433" as="geometry" />
        </mxCell>
        <mxCell id="bhglwZXVVEl7jcrbFOMm-16" value="43,200,000,000" style="text;html=1;strokeColor=none;fillColor=none;align=center;verticalAlign=middle;whiteSpace=wrap;rounded=0;strokeWidth=2;fontSize=30;" vertex="1" parent="1">
          <mxGeometry x="542" y="2331" width="60" height="30" as="geometry" />
        </mxCell>
        <mxCell id="bhglwZXVVEl7jcrbFOMm-17" value="" style="rounded=0;whiteSpace=wrap;html=1;strokeColor=#0e8088;strokeWidth=2;fontSize=30;fillColor=#b0e3e6;" vertex="1" parent="1">
          <mxGeometry x="200" y="2367" width="341" height="349" as="geometry" />
        </mxCell>
        <mxCell id="bhglwZXVVEl7jcrbFOMm-18" value="质押 1 trx" style="text;html=1;strokeColor=none;fillColor=none;align=center;verticalAlign=middle;whiteSpace=wrap;rounded=0;strokeWidth=2;fontSize=30;" vertex="1" parent="1">
          <mxGeometry x="260" y="2423" width="210" height="30" as="geometry" />
        </mxCell>
        <mxCell id="bhglwZXVVEl7jcrbFOMm-19" value="21600000000" style="text;html=1;strokeColor=none;fillColor=none;align=center;verticalAlign=middle;whiteSpace=wrap;rounded=0;strokeWidth=2;fontSize=30;" vertex="1" parent="1">
          <mxGeometry x="338" y="2498" width="60" height="30" as="geometry" />
        </mxCell>
        <mxCell id="bhglwZXVVEl7jcrbFOMm-20" value="" style="rounded=0;whiteSpace=wrap;html=1;strokeColor=#0e8088;strokeWidth=2;fontSize=30;fillColor=#b0e3e6;" vertex="1" parent="1">
          <mxGeometry x="586" y="2371" width="341" height="349" as="geometry" />
        </mxCell>
        <mxCell id="bhglwZXVVEl7jcrbFOMm-21" value="质押 1 trx" style="text;html=1;strokeColor=none;fillColor=none;align=center;verticalAlign=middle;whiteSpace=wrap;rounded=0;strokeWidth=2;fontSize=30;" vertex="1" parent="1">
          <mxGeometry x="663" y="2423" width="210" height="30" as="geometry" />
        </mxCell>
        <mxCell id="bhglwZXVVEl7jcrbFOMm-22" value="21600000000" style="text;html=1;strokeColor=none;fillColor=none;align=center;verticalAlign=middle;whiteSpace=wrap;rounded=0;strokeWidth=2;fontSize=30;" vertex="1" parent="1">
          <mxGeometry x="736" y="2488" width="60" height="30" as="geometry" />
        </mxCell>
        <mxCell id="bhglwZXVVEl7jcrbFOMm-25" value="" style="rounded=0;whiteSpace=wrap;html=1;strokeColor=#b46504;strokeWidth=2;fontSize=30;fillColor=#fad7ac;" vertex="1" parent="1">
          <mxGeometry x="189" y="2850" width="801" height="433" as="geometry" />
        </mxCell>
        <mxCell id="bhglwZXVVEl7jcrbFOMm-26" value="43,200,000,000" style="text;html=1;strokeColor=none;fillColor=none;align=center;verticalAlign=middle;whiteSpace=wrap;rounded=0;strokeWidth=2;fontSize=30;" vertex="1" parent="1">
          <mxGeometry x="547" y="2877" width="60" height="30" as="geometry" />
        </mxCell>
        <mxCell id="bhglwZXVVEl7jcrbFOMm-27" value="" style="rounded=0;whiteSpace=wrap;html=1;strokeColor=#0e8088;strokeWidth=2;fontSize=30;fillColor=#b0e3e6;" vertex="1" parent="1">
          <mxGeometry x="205" y="2913" width="260.5" height="349" as="geometry" />
        </mxCell>
        <mxCell id="bhglwZXVVEl7jcrbFOMm-28" value="质押 1 trx" style="text;html=1;strokeColor=none;fillColor=none;align=center;verticalAlign=middle;whiteSpace=wrap;rounded=0;strokeWidth=2;fontSize=30;" vertex="1" parent="1">
          <mxGeometry x="216.5" y="2967" width="210" height="30" as="geometry" />
        </mxCell>
        <mxCell id="bhglwZXVVEl7jcrbFOMm-29" value="10800000000" style="text;html=1;strokeColor=none;fillColor=none;align=center;verticalAlign=middle;whiteSpace=wrap;rounded=0;strokeWidth=2;fontSize=30;" vertex="1" parent="1">
          <mxGeometry x="302.5" y="3032" width="60" height="30" as="geometry" />
        </mxCell>
        <mxCell id="bhglwZXVVEl7jcrbFOMm-30" value="" style="rounded=0;whiteSpace=wrap;html=1;strokeColor=#0e8088;strokeWidth=2;fontSize=30;fillColor=#b0e3e6;" vertex="1" parent="1">
          <mxGeometry x="492.75" y="2913" width="236.75" height="349" as="geometry" />
        </mxCell>
        <mxCell id="bhglwZXVVEl7jcrbFOMm-31" value="质押 1 trx" style="text;html=1;strokeColor=none;fillColor=none;align=center;verticalAlign=middle;whiteSpace=wrap;rounded=0;strokeWidth=2;fontSize=30;" vertex="1" parent="1">
          <mxGeometry x="514.5" y="2963" width="210" height="30" as="geometry" />
        </mxCell>
        <mxCell id="bhglwZXVVEl7jcrbFOMm-32" value="10800000000" style="text;html=1;strokeColor=none;fillColor=none;align=center;verticalAlign=middle;whiteSpace=wrap;rounded=0;strokeWidth=2;fontSize=30;" vertex="1" parent="1">
          <mxGeometry x="564.5" y="3032" width="60" height="30" as="geometry" />
        </mxCell>
        <mxCell id="bhglwZXVVEl7jcrbFOMm-34" value="" style="rounded=0;whiteSpace=wrap;html=1;strokeColor=#0e8088;strokeWidth=2;fontSize=30;fillColor=#b0e3e6;" vertex="1" parent="1">
          <mxGeometry x="741.5" y="2913" width="236.75" height="349" as="geometry" />
        </mxCell>
        <mxCell id="bhglwZXVVEl7jcrbFOMm-35" value="质押 2 trx" style="text;html=1;strokeColor=none;fillColor=none;align=center;verticalAlign=middle;whiteSpace=wrap;rounded=0;strokeWidth=2;fontSize=30;" vertex="1" parent="1">
          <mxGeometry x="741.5" y="2959" width="210" height="30" as="geometry" />
        </mxCell>
        <mxCell id="bhglwZXVVEl7jcrbFOMm-36" value="21600000000" style="text;html=1;strokeColor=none;fillColor=none;align=center;verticalAlign=middle;whiteSpace=wrap;rounded=0;strokeWidth=2;fontSize=30;" vertex="1" parent="1">
          <mxGeometry x="833.5" y="3032" width="60" height="30" as="geometry" />
        </mxCell>
        <mxCell id="bhglwZXVVEl7jcrbFOMm-37" value="" style="rounded=0;whiteSpace=wrap;html=1;strokeColor=#b46504;strokeWidth=2;fontSize=30;fillColor=#fad7ac;" vertex="1" parent="1">
          <mxGeometry x="172.5" y="3360" width="801" height="433" as="geometry" />
        </mxCell>
        <mxCell id="bhglwZXVVEl7jcrbFOMm-38" value="43,200,000,000" style="text;html=1;strokeColor=none;fillColor=none;align=center;verticalAlign=middle;whiteSpace=wrap;rounded=0;strokeWidth=2;fontSize=30;" vertex="1" parent="1">
          <mxGeometry x="532.5" y="3358" width="60" height="30" as="geometry" />
        </mxCell>
        <mxCell id="bhglwZXVVEl7jcrbFOMm-39" value="" style="rounded=0;whiteSpace=wrap;html=1;strokeColor=#0e8088;strokeWidth=2;fontSize=30;fillColor=#b0e3e6;" vertex="1" parent="1">
          <mxGeometry x="190.5" y="3394" width="63.5" height="41" as="geometry" />
        </mxCell>
        <mxCell id="bhglwZXVVEl7jcrbFOMm-48" value="" style="rounded=0;whiteSpace=wrap;html=1;strokeColor=#0e8088;strokeWidth=2;fontSize=30;fillColor=#b0e3e6;" vertex="1" parent="1">
          <mxGeometry x="270.5" y="3394" width="63.5" height="41" as="geometry" />
        </mxCell>
        <mxCell id="bhglwZXVVEl7jcrbFOMm-49" value="" style="rounded=0;whiteSpace=wrap;html=1;strokeColor=#0e8088;strokeWidth=2;fontSize=30;fillColor=#b0e3e6;" vertex="1" parent="1">
          <mxGeometry x="349.25" y="3394" width="63.5" height="41" as="geometry" />
        </mxCell>
        <mxCell id="bhglwZXVVEl7jcrbFOMm-50" value="" style="rounded=0;whiteSpace=wrap;html=1;strokeColor=#0e8088;strokeWidth=2;fontSize=30;fillColor=#b0e3e6;" vertex="1" parent="1">
          <mxGeometry x="429.25" y="3394" width="63.5" height="41" as="geometry" />
        </mxCell>
        <mxCell id="bhglwZXVVEl7jcrbFOMm-51" value="" style="rounded=0;whiteSpace=wrap;html=1;strokeColor=#0e8088;strokeWidth=2;fontSize=30;fillColor=#b0e3e6;" vertex="1" parent="1">
          <mxGeometry x="510" y="3394" width="63.5" height="41" as="geometry" />
        </mxCell>
        <mxCell id="bhglwZXVVEl7jcrbFOMm-52" value="" style="rounded=0;whiteSpace=wrap;html=1;strokeColor=#0e8088;strokeWidth=2;fontSize=30;fillColor=#b0e3e6;" vertex="1" parent="1">
          <mxGeometry x="590" y="3394" width="63.5" height="41" as="geometry" />
        </mxCell>
        <mxCell id="bhglwZXVVEl7jcrbFOMm-53" value="" style="rounded=0;whiteSpace=wrap;html=1;strokeColor=#0e8088;strokeWidth=2;fontSize=30;fillColor=#b0e3e6;" vertex="1" parent="1">
          <mxGeometry x="668.75" y="3394" width="63.5" height="41" as="geometry" />
        </mxCell>
        <mxCell id="bhglwZXVVEl7jcrbFOMm-54" value="" style="rounded=0;whiteSpace=wrap;html=1;strokeColor=#0e8088;strokeWidth=2;fontSize=30;fillColor=#b0e3e6;" vertex="1" parent="1">
          <mxGeometry x="748.75" y="3394" width="63.5" height="41" as="geometry" />
        </mxCell>
        <mxCell id="bhglwZXVVEl7jcrbFOMm-55" value="" style="rounded=0;whiteSpace=wrap;html=1;strokeColor=#0e8088;strokeWidth=2;fontSize=30;fillColor=#b0e3e6;" vertex="1" parent="1">
          <mxGeometry x="821" y="3394" width="63.5" height="41" as="geometry" />
        </mxCell>
        <mxCell id="bhglwZXVVEl7jcrbFOMm-56" value="" style="rounded=0;whiteSpace=wrap;html=1;strokeColor=#0e8088;strokeWidth=2;fontSize=30;fillColor=#b0e3e6;" vertex="1" parent="1">
          <mxGeometry x="897" y="3394" width="63.5" height="41" as="geometry" />
        </mxCell>
        <mxCell id="bhglwZXVVEl7jcrbFOMm-57" value="" style="rounded=0;whiteSpace=wrap;html=1;strokeColor=#0e8088;strokeWidth=2;fontSize=30;fillColor=#b0e3e6;" vertex="1" parent="1">
          <mxGeometry x="190" y="3445" width="63.5" height="41" as="geometry" />
        </mxCell>
        <mxCell id="bhglwZXVVEl7jcrbFOMm-58" value="" style="rounded=0;whiteSpace=wrap;html=1;strokeColor=#0e8088;strokeWidth=2;fontSize=30;fillColor=#b0e3e6;" vertex="1" parent="1">
          <mxGeometry x="270" y="3445" width="63.5" height="41" as="geometry" />
        </mxCell>
        <mxCell id="bhglwZXVVEl7jcrbFOMm-59" value="" style="rounded=0;whiteSpace=wrap;html=1;strokeColor=#0e8088;strokeWidth=2;fontSize=30;fillColor=#b0e3e6;" vertex="1" parent="1">
          <mxGeometry x="348.75" y="3445" width="63.5" height="41" as="geometry" />
        </mxCell>
        <mxCell id="bhglwZXVVEl7jcrbFOMm-60" value="" style="rounded=0;whiteSpace=wrap;html=1;strokeColor=#0e8088;strokeWidth=2;fontSize=30;fillColor=#b0e3e6;" vertex="1" parent="1">
          <mxGeometry x="428.75" y="3445" width="63.5" height="41" as="geometry" />
        </mxCell>
        <mxCell id="bhglwZXVVEl7jcrbFOMm-61" value="" style="rounded=0;whiteSpace=wrap;html=1;strokeColor=#0e8088;strokeWidth=2;fontSize=30;fillColor=#b0e3e6;" vertex="1" parent="1">
          <mxGeometry x="509.5" y="3445" width="63.5" height="41" as="geometry" />
        </mxCell>
        <mxCell id="bhglwZXVVEl7jcrbFOMm-62" value="" style="rounded=0;whiteSpace=wrap;html=1;strokeColor=#0e8088;strokeWidth=2;fontSize=30;fillColor=#b0e3e6;" vertex="1" parent="1">
          <mxGeometry x="589.5" y="3445" width="63.5" height="41" as="geometry" />
        </mxCell>
        <mxCell id="bhglwZXVVEl7jcrbFOMm-63" value="" style="rounded=0;whiteSpace=wrap;html=1;strokeColor=#0e8088;strokeWidth=2;fontSize=30;fillColor=#b0e3e6;" vertex="1" parent="1">
          <mxGeometry x="668.25" y="3445" width="63.5" height="41" as="geometry" />
        </mxCell>
        <mxCell id="bhglwZXVVEl7jcrbFOMm-64" value="" style="rounded=0;whiteSpace=wrap;html=1;strokeColor=#0e8088;strokeWidth=2;fontSize=30;fillColor=#b0e3e6;" vertex="1" parent="1">
          <mxGeometry x="748.25" y="3445" width="63.5" height="41" as="geometry" />
        </mxCell>
        <mxCell id="bhglwZXVVEl7jcrbFOMm-65" value="" style="rounded=0;whiteSpace=wrap;html=1;strokeColor=#0e8088;strokeWidth=2;fontSize=30;fillColor=#b0e3e6;" vertex="1" parent="1">
          <mxGeometry x="820.5" y="3445" width="63.5" height="41" as="geometry" />
        </mxCell>
        <mxCell id="bhglwZXVVEl7jcrbFOMm-66" value="" style="rounded=0;whiteSpace=wrap;html=1;strokeColor=#0e8088;strokeWidth=2;fontSize=30;fillColor=#b0e3e6;" vertex="1" parent="1">
          <mxGeometry x="896.5" y="3445" width="63.5" height="41" as="geometry" />
        </mxCell>
        <mxCell id="bhglwZXVVEl7jcrbFOMm-67" value="" style="rounded=0;whiteSpace=wrap;html=1;strokeColor=#0e8088;strokeWidth=2;fontSize=30;fillColor=#b0e3e6;" vertex="1" parent="1">
          <mxGeometry x="190.5" y="3498" width="63.5" height="41" as="geometry" />
        </mxCell>
        <mxCell id="bhglwZXVVEl7jcrbFOMm-68" value="" style="rounded=0;whiteSpace=wrap;html=1;strokeColor=#0e8088;strokeWidth=2;fontSize=30;fillColor=#b0e3e6;" vertex="1" parent="1">
          <mxGeometry x="270.5" y="3498" width="63.5" height="41" as="geometry" />
        </mxCell>
        <mxCell id="bhglwZXVVEl7jcrbFOMm-69" value="" style="rounded=0;whiteSpace=wrap;html=1;strokeColor=#0e8088;strokeWidth=2;fontSize=30;fillColor=#b0e3e6;" vertex="1" parent="1">
          <mxGeometry x="349.25" y="3498" width="63.5" height="41" as="geometry" />
        </mxCell>
        <mxCell id="bhglwZXVVEl7jcrbFOMm-70" value="" style="rounded=0;whiteSpace=wrap;html=1;strokeColor=#0e8088;strokeWidth=2;fontSize=30;fillColor=#b0e3e6;" vertex="1" parent="1">
          <mxGeometry x="429.25" y="3498" width="63.5" height="41" as="geometry" />
        </mxCell>
        <mxCell id="bhglwZXVVEl7jcrbFOMm-71" value="" style="rounded=0;whiteSpace=wrap;html=1;strokeColor=#0e8088;strokeWidth=2;fontSize=30;fillColor=#b0e3e6;" vertex="1" parent="1">
          <mxGeometry x="510" y="3498" width="63.5" height="41" as="geometry" />
        </mxCell>
        <mxCell id="bhglwZXVVEl7jcrbFOMm-72" value="" style="rounded=0;whiteSpace=wrap;html=1;strokeColor=#0e8088;strokeWidth=2;fontSize=30;fillColor=#b0e3e6;" vertex="1" parent="1">
          <mxGeometry x="590" y="3498" width="63.5" height="41" as="geometry" />
        </mxCell>
        <mxCell id="bhglwZXVVEl7jcrbFOMm-73" value="" style="rounded=0;whiteSpace=wrap;html=1;strokeColor=#0e8088;strokeWidth=2;fontSize=30;fillColor=#b0e3e6;" vertex="1" parent="1">
          <mxGeometry x="668.75" y="3498" width="63.5" height="41" as="geometry" />
        </mxCell>
        <mxCell id="bhglwZXVVEl7jcrbFOMm-74" value="" style="rounded=0;whiteSpace=wrap;html=1;strokeColor=#0e8088;strokeWidth=2;fontSize=30;fillColor=#b0e3e6;" vertex="1" parent="1">
          <mxGeometry x="748.75" y="3498" width="63.5" height="41" as="geometry" />
        </mxCell>
        <mxCell id="bhglwZXVVEl7jcrbFOMm-75" value="" style="rounded=0;whiteSpace=wrap;html=1;strokeColor=#0e8088;strokeWidth=2;fontSize=30;fillColor=#b0e3e6;" vertex="1" parent="1">
          <mxGeometry x="821" y="3498" width="63.5" height="41" as="geometry" />
        </mxCell>
        <mxCell id="bhglwZXVVEl7jcrbFOMm-76" value="" style="rounded=0;whiteSpace=wrap;html=1;strokeColor=#0e8088;strokeWidth=2;fontSize=30;fillColor=#b0e3e6;" vertex="1" parent="1">
          <mxGeometry x="897" y="3498" width="63.5" height="41" as="geometry" />
        </mxCell>
        <mxCell id="bhglwZXVVEl7jcrbFOMm-77" value="" style="rounded=0;whiteSpace=wrap;html=1;strokeColor=#0e8088;strokeWidth=2;fontSize=30;fillColor=#b0e3e6;" vertex="1" parent="1">
          <mxGeometry x="190" y="3549" width="63.5" height="41" as="geometry" />
        </mxCell>
        <mxCell id="bhglwZXVVEl7jcrbFOMm-78" value="" style="rounded=0;whiteSpace=wrap;html=1;strokeColor=#0e8088;strokeWidth=2;fontSize=30;fillColor=#b0e3e6;" vertex="1" parent="1">
          <mxGeometry x="270" y="3549" width="63.5" height="41" as="geometry" />
        </mxCell>
        <mxCell id="bhglwZXVVEl7jcrbFOMm-79" value="" style="rounded=0;whiteSpace=wrap;html=1;strokeColor=#0e8088;strokeWidth=2;fontSize=30;fillColor=#b0e3e6;" vertex="1" parent="1">
          <mxGeometry x="348.75" y="3549" width="63.5" height="41" as="geometry" />
        </mxCell>
        <mxCell id="bhglwZXVVEl7jcrbFOMm-80" value="" style="rounded=0;whiteSpace=wrap;html=1;strokeColor=#0e8088;strokeWidth=2;fontSize=30;fillColor=#b0e3e6;" vertex="1" parent="1">
          <mxGeometry x="428.75" y="3549" width="63.5" height="41" as="geometry" />
        </mxCell>
        <mxCell id="bhglwZXVVEl7jcrbFOMm-81" value="" style="rounded=0;whiteSpace=wrap;html=1;strokeColor=#0e8088;strokeWidth=2;fontSize=30;fillColor=#b0e3e6;" vertex="1" parent="1">
          <mxGeometry x="509.5" y="3549" width="63.5" height="41" as="geometry" />
        </mxCell>
        <mxCell id="bhglwZXVVEl7jcrbFOMm-82" value="" style="rounded=0;whiteSpace=wrap;html=1;strokeColor=#0e8088;strokeWidth=2;fontSize=30;fillColor=#b0e3e6;" vertex="1" parent="1">
          <mxGeometry x="589.5" y="3549" width="63.5" height="41" as="geometry" />
        </mxCell>
        <mxCell id="bhglwZXVVEl7jcrbFOMm-83" value="" style="rounded=0;whiteSpace=wrap;html=1;strokeColor=#0e8088;strokeWidth=2;fontSize=30;fillColor=#b0e3e6;" vertex="1" parent="1">
          <mxGeometry x="668.25" y="3549" width="63.5" height="41" as="geometry" />
        </mxCell>
        <mxCell id="bhglwZXVVEl7jcrbFOMm-84" value="" style="rounded=0;whiteSpace=wrap;html=1;strokeColor=#0e8088;strokeWidth=2;fontSize=30;fillColor=#b0e3e6;" vertex="1" parent="1">
          <mxGeometry x="748.25" y="3549" width="63.5" height="41" as="geometry" />
        </mxCell>
        <mxCell id="bhglwZXVVEl7jcrbFOMm-85" value="" style="rounded=0;whiteSpace=wrap;html=1;strokeColor=#0e8088;strokeWidth=2;fontSize=30;fillColor=#b0e3e6;" vertex="1" parent="1">
          <mxGeometry x="820.5" y="3549" width="63.5" height="41" as="geometry" />
        </mxCell>
        <mxCell id="bhglwZXVVEl7jcrbFOMm-86" value="" style="rounded=0;whiteSpace=wrap;html=1;strokeColor=#0e8088;strokeWidth=2;fontSize=30;fillColor=#b0e3e6;" vertex="1" parent="1">
          <mxGeometry x="896.5" y="3549" width="63.5" height="41" as="geometry" />
        </mxCell>
        <mxCell id="bhglwZXVVEl7jcrbFOMm-87" value="" style="rounded=0;whiteSpace=wrap;html=1;strokeColor=#0e8088;strokeWidth=2;fontSize=30;fillColor=#b0e3e6;" vertex="1" parent="1">
          <mxGeometry x="191" y="3604" width="63.5" height="41" as="geometry" />
        </mxCell>
        <mxCell id="bhglwZXVVEl7jcrbFOMm-88" value="" style="rounded=0;whiteSpace=wrap;html=1;strokeColor=#0e8088;strokeWidth=2;fontSize=30;fillColor=#b0e3e6;" vertex="1" parent="1">
          <mxGeometry x="271" y="3604" width="63.5" height="41" as="geometry" />
        </mxCell>
        <mxCell id="bhglwZXVVEl7jcrbFOMm-89" value="" style="rounded=0;whiteSpace=wrap;html=1;strokeColor=#0e8088;strokeWidth=2;fontSize=30;fillColor=#b0e3e6;" vertex="1" parent="1">
          <mxGeometry x="349.75" y="3604" width="63.5" height="41" as="geometry" />
        </mxCell>
        <mxCell id="bhglwZXVVEl7jcrbFOMm-90" value="" style="rounded=0;whiteSpace=wrap;html=1;strokeColor=#0e8088;strokeWidth=2;fontSize=30;fillColor=#b0e3e6;" vertex="1" parent="1">
          <mxGeometry x="429.75" y="3604" width="63.5" height="41" as="geometry" />
        </mxCell>
        <mxCell id="bhglwZXVVEl7jcrbFOMm-91" value="" style="rounded=0;whiteSpace=wrap;html=1;strokeColor=#0e8088;strokeWidth=2;fontSize=30;fillColor=#b0e3e6;" vertex="1" parent="1">
          <mxGeometry x="510.5" y="3604" width="63.5" height="41" as="geometry" />
        </mxCell>
        <mxCell id="bhglwZXVVEl7jcrbFOMm-92" value="" style="rounded=0;whiteSpace=wrap;html=1;strokeColor=#0e8088;strokeWidth=2;fontSize=30;fillColor=#b0e3e6;" vertex="1" parent="1">
          <mxGeometry x="590.5" y="3604" width="63.5" height="41" as="geometry" />
        </mxCell>
        <mxCell id="bhglwZXVVEl7jcrbFOMm-93" value="" style="rounded=0;whiteSpace=wrap;html=1;strokeColor=#0e8088;strokeWidth=2;fontSize=30;fillColor=#b0e3e6;" vertex="1" parent="1">
          <mxGeometry x="669.25" y="3604" width="63.5" height="41" as="geometry" />
        </mxCell>
        <mxCell id="bhglwZXVVEl7jcrbFOMm-94" value="" style="rounded=0;whiteSpace=wrap;html=1;strokeColor=#0e8088;strokeWidth=2;fontSize=30;fillColor=#b0e3e6;" vertex="1" parent="1">
          <mxGeometry x="749.25" y="3604" width="63.5" height="41" as="geometry" />
        </mxCell>
        <mxCell id="bhglwZXVVEl7jcrbFOMm-95" value="" style="rounded=0;whiteSpace=wrap;html=1;strokeColor=#0e8088;strokeWidth=2;fontSize=30;fillColor=#b0e3e6;" vertex="1" parent="1">
          <mxGeometry x="821.5" y="3604" width="63.5" height="41" as="geometry" />
        </mxCell>
        <mxCell id="bhglwZXVVEl7jcrbFOMm-96" value="" style="rounded=0;whiteSpace=wrap;html=1;strokeColor=#0e8088;strokeWidth=2;fontSize=30;fillColor=#b0e3e6;" vertex="1" parent="1">
          <mxGeometry x="897.5" y="3604" width="63.5" height="41" as="geometry" />
        </mxCell>
        <mxCell id="bhglwZXVVEl7jcrbFOMm-97" value="" style="rounded=0;whiteSpace=wrap;html=1;strokeColor=#0e8088;strokeWidth=2;fontSize=30;fillColor=#b0e3e6;" vertex="1" parent="1">
          <mxGeometry x="190.5" y="3655" width="63.5" height="41" as="geometry" />
        </mxCell>
        <mxCell id="bhglwZXVVEl7jcrbFOMm-98" value="" style="rounded=0;whiteSpace=wrap;html=1;strokeColor=#0e8088;strokeWidth=2;fontSize=30;fillColor=#b0e3e6;" vertex="1" parent="1">
          <mxGeometry x="270.5" y="3655" width="63.5" height="41" as="geometry" />
        </mxCell>
        <mxCell id="bhglwZXVVEl7jcrbFOMm-99" value="" style="rounded=0;whiteSpace=wrap;html=1;strokeColor=#0e8088;strokeWidth=2;fontSize=30;fillColor=#b0e3e6;" vertex="1" parent="1">
          <mxGeometry x="349.25" y="3655" width="63.5" height="41" as="geometry" />
        </mxCell>
        <mxCell id="bhglwZXVVEl7jcrbFOMm-100" value="" style="rounded=0;whiteSpace=wrap;html=1;strokeColor=#0e8088;strokeWidth=2;fontSize=30;fillColor=#b0e3e6;" vertex="1" parent="1">
          <mxGeometry x="429.25" y="3655" width="63.5" height="41" as="geometry" />
        </mxCell>
        <mxCell id="bhglwZXVVEl7jcrbFOMm-101" value="" style="rounded=0;whiteSpace=wrap;html=1;strokeColor=#0e8088;strokeWidth=2;fontSize=30;fillColor=#b0e3e6;" vertex="1" parent="1">
          <mxGeometry x="510" y="3655" width="63.5" height="41" as="geometry" />
        </mxCell>
        <mxCell id="bhglwZXVVEl7jcrbFOMm-102" value="" style="rounded=0;whiteSpace=wrap;html=1;strokeColor=#0e8088;strokeWidth=2;fontSize=30;fillColor=#b0e3e6;" vertex="1" parent="1">
          <mxGeometry x="590" y="3655" width="63.5" height="41" as="geometry" />
        </mxCell>
        <mxCell id="bhglwZXVVEl7jcrbFOMm-103" value="" style="rounded=0;whiteSpace=wrap;html=1;strokeColor=#0e8088;strokeWidth=2;fontSize=30;fillColor=#b0e3e6;" vertex="1" parent="1">
          <mxGeometry x="668.75" y="3655" width="63.5" height="41" as="geometry" />
        </mxCell>
        <mxCell id="bhglwZXVVEl7jcrbFOMm-104" value="" style="rounded=0;whiteSpace=wrap;html=1;strokeColor=#0e8088;strokeWidth=2;fontSize=30;fillColor=#b0e3e6;" vertex="1" parent="1">
          <mxGeometry x="748.75" y="3655" width="63.5" height="41" as="geometry" />
        </mxCell>
        <mxCell id="bhglwZXVVEl7jcrbFOMm-105" value="" style="rounded=0;whiteSpace=wrap;html=1;strokeColor=#0e8088;strokeWidth=2;fontSize=30;fillColor=#b0e3e6;" vertex="1" parent="1">
          <mxGeometry x="821" y="3655" width="63.5" height="41" as="geometry" />
        </mxCell>
        <mxCell id="bhglwZXVVEl7jcrbFOMm-106" value="" style="rounded=0;whiteSpace=wrap;html=1;strokeColor=#0e8088;strokeWidth=2;fontSize=30;fillColor=#b0e3e6;" vertex="1" parent="1">
          <mxGeometry x="897" y="3655" width="63.5" height="41" as="geometry" />
        </mxCell>
        <mxCell id="bhglwZXVVEl7jcrbFOMm-107" value="" style="rounded=0;whiteSpace=wrap;html=1;strokeColor=#0e8088;strokeWidth=2;fontSize=30;fillColor=#b0e3e6;" vertex="1" parent="1">
          <mxGeometry x="192" y="3717" width="63.5" height="41" as="geometry" />
        </mxCell>
        <mxCell id="bhglwZXVVEl7jcrbFOMm-108" value="" style="rounded=0;whiteSpace=wrap;html=1;strokeColor=#0e8088;strokeWidth=2;fontSize=30;fillColor=#b0e3e6;" vertex="1" parent="1">
          <mxGeometry x="272" y="3717" width="63.5" height="41" as="geometry" />
        </mxCell>
        <mxCell id="bhglwZXVVEl7jcrbFOMm-109" value="" style="rounded=0;whiteSpace=wrap;html=1;strokeColor=#0e8088;strokeWidth=2;fontSize=30;fillColor=#b0e3e6;" vertex="1" parent="1">
          <mxGeometry x="350.75" y="3717" width="63.5" height="41" as="geometry" />
        </mxCell>
        <mxCell id="bhglwZXVVEl7jcrbFOMm-110" value="" style="rounded=0;whiteSpace=wrap;html=1;strokeColor=#0e8088;strokeWidth=2;fontSize=30;fillColor=#b0e3e6;" vertex="1" parent="1">
          <mxGeometry x="430.75" y="3717" width="63.5" height="41" as="geometry" />
        </mxCell>
        <mxCell id="bhglwZXVVEl7jcrbFOMm-111" value="" style="rounded=0;whiteSpace=wrap;html=1;strokeColor=#0e8088;strokeWidth=2;fontSize=30;fillColor=#b0e3e6;" vertex="1" parent="1">
          <mxGeometry x="511.5" y="3717" width="63.5" height="41" as="geometry" />
        </mxCell>
        <mxCell id="bhglwZXVVEl7jcrbFOMm-112" value="" style="rounded=0;whiteSpace=wrap;html=1;strokeColor=#0e8088;strokeWidth=2;fontSize=30;fillColor=#b0e3e6;" vertex="1" parent="1">
          <mxGeometry x="591.5" y="3717" width="63.5" height="41" as="geometry" />
        </mxCell>
        <mxCell id="bhglwZXVVEl7jcrbFOMm-113" value="" style="rounded=0;whiteSpace=wrap;html=1;strokeColor=#0e8088;strokeWidth=2;fontSize=30;fillColor=#b0e3e6;" vertex="1" parent="1">
          <mxGeometry x="670.25" y="3717" width="63.5" height="41" as="geometry" />
        </mxCell>
        <mxCell id="bhglwZXVVEl7jcrbFOMm-114" value="" style="rounded=0;whiteSpace=wrap;html=1;strokeColor=#0e8088;strokeWidth=2;fontSize=30;fillColor=#b0e3e6;" vertex="1" parent="1">
          <mxGeometry x="750.25" y="3717" width="63.5" height="41" as="geometry" />
        </mxCell>
        <mxCell id="bhglwZXVVEl7jcrbFOMm-115" value="" style="rounded=0;whiteSpace=wrap;html=1;strokeColor=#0e8088;strokeWidth=2;fontSize=30;fillColor=#b0e3e6;" vertex="1" parent="1">
          <mxGeometry x="822.5" y="3717" width="63.5" height="41" as="geometry" />
        </mxCell>
        <mxCell id="bhglwZXVVEl7jcrbFOMm-116" value="" style="rounded=0;whiteSpace=wrap;html=1;strokeColor=#0e8088;strokeWidth=2;fontSize=30;fillColor=#b0e3e6;" vertex="1" parent="1">
          <mxGeometry x="898.5" y="3717" width="63.5" height="41" as="geometry" />
        </mxCell>
      </root>
    </mxGraphModel>
  </diagram>
</mxfile>
